<svg width="29" height="29" viewBox="0 0 29 29" fill="none" xmlns="http://www.w3.org/2000/svg">
<path d="M25.3746 18.8499H22.0034C22.7746 19.6174 23.2056 20.6621 23.1996 21.7499C23.1976 23.3508 21.9004 24.6479 20.2996 24.6499H13.7747C13.3743 24.6499 13.0497 24.3254 13.0497 23.925C13.0497 23.5246 13.3743 23.1999 13.7747 23.1999H20.2996C21.1002 23.1994 21.7491 22.5505 21.7496 21.7499C21.7496 19.8796 20.2047 18.8499 17.3997 18.8499H9.42471C7.42351 18.8517 5.8016 20.4737 5.7998 22.475V25.375C5.8016 27.3763 7.42351 28.998 9.42471 28.9999H25.3746C27.3758 28.998 28.9977 27.3763 28.9995 25.375V22.475C28.9977 20.4737 27.3758 18.8517 25.3746 18.8499Z" fill="#695C4A"/>
<path d="M4.34998 22.475C4.35338 19.6735 6.6235 17.4033 9.4249 17.3999H11.5999V9.425C11.6002 9.025 11.276 8.7003 10.8758 8.7H6.52499V7.1469C7.80189 6.8182 8.69569 5.6688 8.69989 4.35C8.69989 3.053 7.18339 0 5.79999 0C4.41659 0 2.90009 3.0529 2.90009 4.3499C2.90419 5.6686 3.79808 6.8181 5.07498 7.1468V8.6999H0.724976C0.324876 8.6997 0.000300093 9.0239 9.24908e-08 9.4241V28.2749C-0.000199908 28.6751 0.323982 28.9997 0.724182 28.9998H5.88449C4.90419 28.0487 4.35058 26.7408 4.34998 25.3749V22.475Z" fill="#695C4A"/>
<path d="M18.1249 15.9457H19.5749C19.9753 15.9457 20.2999 15.6211 20.2999 15.2208C20.2999 13.2188 18.677 11.5957 16.675 11.5957H15.225C14.8246 11.5957 14.5 11.9205 14.5 12.3209C14.5 14.323 16.1229 15.9457 18.1249 15.9457Z" fill="#695C4A"/>
<path d="M21.0248 12.6483C21.6429 11.6084 22.6098 10.8207 23.7536 10.4264C23.5109 9.69589 23.1035 9.03109 22.5626 8.48329L21.5375 7.45809C21.2498 7.18649 20.7999 7.18649 20.5122 7.45809L19.4878 8.48329C18.9469 9.03109 18.5391 9.69609 18.2964 10.4266C19.44 10.8211 20.4068 11.6085 21.0248 12.6483Z" fill="#695C4A"/>
<path d="M21.75 15.2209C21.75 15.6212 22.0746 15.9458 22.4749 15.9458H23.925C25.927 15.9458 27.5499 14.323 27.5499 12.3209C27.5499 11.9206 27.2254 11.5957 26.8249 11.5957H25.375C23.3729 11.5957 21.75 13.2189 21.75 15.2209Z" fill="#695C4A"/>
</svg>
