<svg width="27" height="30" viewBox="0 0 27 30" fill="none" xmlns="http://www.w3.org/2000/svg">
<path d="M16.3906 22.5105C15.458 22.8413 14.7826 22.5479 14.745 22.532C14.4825 22.4039 14.1608 22.5158 14.0322 22.7826C13.9036 23.0493 14.0162 23.3694 14.2842 23.4921C14.311 23.5079 14.7933 23.7321 15.5169 23.7321C15.8762 23.7321 16.2941 23.6788 16.7497 23.5188C17.0284 23.4173 17.1731 23.1134 17.0767 22.8358C16.9748 22.5585 16.6694 22.4145 16.3906 22.5105Z" fill="#695C4A"/>
<path d="M22.6136 21.5823L22.2758 16.755V16.6108C22.2812 16.4615 22.3402 12.6582 15.5384 10.6526C8.75276 12.6529 8.80625 16.4508 8.81165 16.627C8.81705 16.6643 8.81705 16.7176 8.81165 16.755L8.47934 21.5823C8.44714 21.9879 8.23805 22.3451 7.92725 22.58C8.58115 23.9455 9.57286 25.1138 10.7949 25.9725V29.1037C10.7949 29.5303 11.1433 29.877 11.5721 29.877H19.269C19.6978 29.877 20.0409 29.5303 20.0409 29.1037V26.186C21.413 25.3377 22.5224 24.0949 23.2245 22.6226C22.8816 22.3934 22.6404 22.0144 22.6136 21.5823ZM9.73895 16.6644C9.73895 15.3842 10.7787 14.3546 12.0598 14.3546C13.3409 14.3546 14.386 15.3842 14.386 16.6644C14.386 17.9446 13.3461 18.974 12.0598 18.974C10.7735 18.974 9.73895 17.9394 9.73895 16.6644ZM15.5438 24.8417C13.7268 24.8417 12.2527 24.02 12.2527 23.0067C12.2527 21.9934 13.7268 21.177 15.5438 21.177C17.3608 21.177 18.8401 21.9986 18.8401 23.0067C18.8401 24.0148 17.3662 24.8417 15.5438 24.8417ZM19.0279 18.974C17.7468 18.974 16.7068 17.9394 16.7068 16.6644C16.7068 15.3894 17.7468 14.3546 19.0279 14.3546C20.309 14.3546 21.3539 15.3842 21.3539 16.6644C21.3539 17.9446 20.3142 18.974 19.0279 18.974Z" fill="#695C4A"/>
<path d="M13.293 16.4615C13.1911 16.1842 12.8855 16.04 12.6068 16.1362C12.0172 16.3442 11.5884 16.168 11.5616 16.1574C11.2936 16.0349 10.9774 16.1468 10.854 16.4083C10.7254 16.675 10.8379 16.995 11.106 17.1177C11.1596 17.1443 11.5133 17.3044 12.044 17.3044C12.3119 17.3044 12.6282 17.2616 12.9712 17.139C13.2498 17.0375 13.3946 16.7335 13.2981 16.4562L13.293 16.4615Z" fill="#695C4A"/>
<path d="M19.5265 16.1629L19.5211 16.1574C19.5211 16.1574 19.0816 16.3495 18.4813 16.1362C18.2026 16.04 17.897 16.1842 17.7952 16.4615C17.6933 16.7389 17.8435 17.043 18.1221 17.1443C18.4652 17.2671 18.7814 17.3097 19.0495 17.3097C19.5747 17.3097 19.9285 17.1498 19.9874 17.123C20.2554 16.995 20.368 16.675 20.2393 16.4136C20.1107 16.1468 19.7891 16.0349 19.5265 16.1629Z" fill="#695C4A"/>
<path d="M17.1088 9.15875H17.1142C17.3553 9.11085 17.5912 9.01995 17.7949 8.89195C18.4166 8.50275 19.4671 7.52655 19.1616 5.47275C19.1616 5.47275 18.5936 2.93375 15.7634 3.12585C15.7634 3.12585 12.4349 3.39255 9.45477 5.13675L9.79785 5.33425C10.1301 5.52635 10.3338 5.87815 10.3338 6.25705V8.60945C10.3338 8.98815 10.1301 9.34545 9.79785 9.53215L7.75027 10.7113C7.58407 10.807 7.40185 10.8551 7.21435 10.8551C7.02685 10.8551 6.84445 10.807 6.67825 10.7113L5.15075 9.83625C4.42715 11.3512 3.82145 13.4743 4.28775 15.9492C4.28775 15.9492 4.85594 19.7314 6.87124 21.7157C7.05894 21.9024 7.38585 21.7742 7.40185 21.5076L7.73425 16.6855C7.73425 16.6855 7.36436 11.2072 17.1088 9.15875Z" fill="#695C4A"/>
<path d="M5.17236 8.60957L7.21997 9.78317L9.26736 8.60957V6.25177L7.21997 5.07837L5.17236 6.25177V8.60957Z" fill="#695C4A"/>
<path d="M6.6839 4.1499V1.7978L4.63641 0.618896L2.5835 1.7978V4.1499L4.63641 5.3291L6.6839 4.1499Z" fill="#695C4A"/>
<path d="M0 6.25177V8.60957L2.04761 9.78317L4.1004 8.60957V6.25177L2.04761 5.07837L0 6.25177Z" fill="#695C4A"/>
<path d="M16.0637 2.0378V2.0431C16.9428 2.0431 17.6556 2.2618 18.2345 2.5926C19.3494 2.8965 20.6679 3.3714 21.9543 4.0915C20.9896 1.6965 18.6472 0 15.8922 0H15.1955C12.4512 0 10.1087 1.691 9.14404 4.0755C12.2152 2.3524 15.4956 2.0644 15.6832 2.0484C15.8226 2.0378 15.9457 2.0378 16.0637 2.0378Z" fill="#695C4A"/>
<path d="M24.3397 7.39851C23.0962 5.87841 21.4132 4.90211 19.8374 4.26221C20.0303 4.61961 20.1536 4.96091 20.2125 5.23831C20.2179 5.26501 20.2233 5.28631 20.2287 5.31291C20.6359 8.04941 19.0655 9.35631 18.3688 9.78841C18.09 9.96441 17.7684 10.0871 17.4307 10.1724C23.6161 12.6049 23.3481 16.6856 23.3481 16.6856L23.6804 21.5077C23.6966 21.769 24.0235 21.8972 24.2111 21.7158C26.2211 19.7368 26.7946 15.9493 26.7946 15.9493C27.7379 10.9672 24.3397 7.39851 24.3397 7.39851Z" fill="#695C4A"/>
</svg>
