<svg width="34" height="30" viewBox="0 0 34 30" fill="none" xmlns="http://www.w3.org/2000/svg">
<path d="M26.7021 24.9656C29.0187 24.9656 30.8989 23.091 30.8989 20.7734C30.8989 18.4595 29.0187 16.5813 26.7021 16.5813C24.3855 16.5813 22.5054 18.4595 22.5054 20.7734C22.5054 23.0873 24.3856 24.9656 26.7021 24.9656Z" fill="#695C4A"/>
<path d="M8.255 3.8699C8.4961 3.2036 8.88642 2.5906 9.40442 2.0731C9.92242 1.5556 10.5362 1.166 11.203 0.925C10.8199 0.3651 10.1777 0 9.45053 0C8.27983 0 7.3291 0.9498 7.3291 2.1193C7.3291 2.8457 7.6945 3.4872 8.255 3.8699Z" fill="#695C4A"/>
<path d="M9.07434 4.20303C8.92534 4.62833 8.84375 5.08183 8.84375 5.55313C8.84375 7.78573 10.6567 9.59293 12.888 9.59293C15.1193 9.59293 16.9323 7.78223 16.9323 5.55313C16.9323 3.32073 15.1194 1.51343 12.888 1.51343C12.4127 1.51343 11.9585 1.59493 11.5363 1.74383C10.3905 2.15123 9.47874 3.05853 9.07434 4.20303Z" fill="#695C4A"/>
<path d="M10.6357 18.8315C11.2991 17.5949 13.3708 16.9816 12.8777 15.2558C12.8742 15.2418 12.8672 15.2276 12.8636 15.2098L14.7191 16.9676C14.8573 17.0985 15.024 17.2049 15.2014 17.2723L20.2744 19.2073C20.4447 19.271 20.6221 19.3029 20.796 19.3029C21.3849 19.3029 21.9381 18.9448 22.1581 18.3637C22.4454 17.6126 22.0695 16.769 21.3138 16.4821L16.8297 14.7705C16.6204 14.6888 16.4289 14.5685 16.2657 14.416C16.2657 14.416 12.3173 10.6739 12.3137 10.6703C12.1471 10.5108 11.9305 10.4082 11.7036 10.3338C11.6503 10.3159 11.5935 10.2984 11.5369 10.2842C11.4767 10.2663 11.4127 10.2486 11.3488 10.2346C10.3625 9.97225 9.26646 9.74915 8.25186 9.83755C7.91836 9.86605 7.55297 9.95105 7.26917 10.146C6.94277 10.3796 6.80795 10.7767 6.64835 11.1274C5.70115 13.2253 3.63655 18.5871 3.06885 19.9371H10.1143C10.2704 19.5544 10.4441 19.1824 10.6357 18.8315Z" fill="#695C4A"/>
<path d="M31.6796 26.2167H24.6128L19.8095 21.3477C19.437 20.9684 19.2171 20.8125 18.5501 20.8125C17.4008 20.8125 1.45099 20.8232 1.45099 20.8232C0.649189 20.8232 0 21.4716 0 22.2725V26.0077C0 26.8084 0.649189 27.457 1.45099 27.457H20.6999L22.5446 29.3244C22.7185 29.5016 22.9278 29.6399 23.1513 29.732C23.3713 29.8206 23.6054 29.8703 23.8467 29.8703H31.7078C32.7297 29.8703 33.5525 29.0339 33.5384 28.0133C33.5207 27.0105 32.6835 26.2167 31.6796 26.2167Z" fill="#695C4A"/>
<path d="M1.45099 28.3427C0.904689 28.3427 0.3974 28.1513 0 27.8359V29.87H21.8387L20.331 28.3427H1.45099Z" fill="#695C4A"/>
</svg>
